<svg xmlns="http://www.w3.org/2000/svg" viewBox="0 0 220 270">
<defs>
 <filter id="s" x="-30%" y="-30%" width="160%" height="170%"><feDropShadow dx="8" dy="10" stdDeviation="4" flood-color="#071b2b" flood-opacity=".75"/></filter>
 <linearGradient id="r" x1="0" y1="0" x2="0" y2="1"><stop offset="0" stop-color="#ff3a28"/><stop offset="1" stop-color="#c9181f"/></linearGradient>
 <linearGradient id="j" x1="0" y1="0" x2="1" y2="1"><stop stop-color="#22252a"/><stop offset="1" stop-color="#050607"/></linearGradient>
 <linearGradient id="c" x1="0" y1="0" x2="1" y2="1"><stop stop-color="#3fd2e8"/><stop offset="1" stop-color="#0a6f8f"/></linearGradient>
</defs>
<g filter="url(#s)">
 <path d="M110 262 L26 170 C9 151 5 128 11 105 C21 61 61 29 110 29 C159 29 199 61 209 105 C215 128 211 151 194 170 Z" fill="url(#r)" stroke="#f6e7ce" stroke-width="7"/>
 <path d="M110 252 L37 166 C22 148 18 130 23 109 C31 74 66 45 110 45 C154 45 189 74 197 109 C202 130 198 148 183 166 Z" fill="#071b2b" stroke="#071b2b" stroke-width="3"/>
 <circle cx="110" cy="112" r="67" fill="#ff6a2e" stroke="#f6e7ce" stroke-width="4"/>
 <path d="M46 105 C35 75 51 49 77 43 C80 25 105 20 119 34 C139 22 164 37 163 55 C184 59 190 85 177 104 C168 92 157 82 147 76 C132 66 112 63 91 71 C72 77 59 90 46 105Z" fill="#050608" stroke="#071b2b" stroke-width="5"/>
 <path d="M74 88 Q109 67 145 88 L139 126 Q126 150 108 153 Q89 149 78 127Z" fill="#f36a2e" stroke="#071b2b" stroke-width="3"/>
 <g stroke="#f4c52f" stroke-width="4"><circle cx="84" cy="93" r="20" fill="url(#c)"/><circle cx="135" cy="93" r="20" fill="url(#c)"/><path d="M103 92h14M64 87l-12 -8M155 87l13 -8" fill="none"/></g>
 <path d="M89 121 Q108 133 127 121" fill="none" stroke="#071b2b" stroke-width="4"/>
 <path d="M50 178 Q61 137 86 137 L110 157 L134 137 Q162 141 176 178 L161 212 L59 212Z" fill="url(#j)" stroke="#071b2b" stroke-width="5"/>
 <path d="M86 137 L110 157 L134 137" fill="none" stroke="#f6e7ce" stroke-width="5"/>
 <path d="M85 156 Q110 167 135 156 L139 202 L81 202Z" fill="#f6e7ce" stroke="#071b2b" stroke-width="3"/>
 <path d="M87 174h46" stroke="#ef2d24" stroke-width="10"/><path d="M87 188h46" stroke="#0c91ad" stroke-width="8"/>
 <path d="M43 152 L77 158 L71 205 Q57 211 46 200Z" fill="url(#c)" stroke="#071b2b" stroke-width="5"/>
 <path d="M45 154 Q60 145 76 157" fill="#f6e7ce" stroke="#071b2b" stroke-width="5"/>
 <path d="M61 148 Q69 126 84 112" fill="none" stroke="#ef2d24" stroke-width="5"/>
</g></svg>